<?xml version="1.0" standalone="no"?>
<!DOCTYPE svg PUBLIC "-//W3C//DTD SVG 20010904//EN"
 "http://www.w3.org/TR/2001/REC-SVG-20010904/DTD/svg10.dtd">
<svg version="1.0" xmlns="http://www.w3.org/2000/svg"
 width="300.000000pt" height="59.000000pt" viewBox="0 0 300.000000 59.000000"
 preserveAspectRatio="xMidYMid meet">
<metadata>
Created by potrace 1.10, written by Peter Selinger 2001-2011
</metadata>
<g transform="translate(0.000000,59.000000) scale(0.100000,-0.100000)"
fill="#000000" stroke="none">
<path d="M1614 520 c-28 -11 -54 -48 -54 -77 0 -12 13 -37 30 -56 26 -30 49
-43 130 -74 25 -10 25 -10 -18 -39 -93 -63 -128 -91 -148 -121 l-21 -31 -24
23 c-13 13 -60 42 -104 65 -75 39 -135 84 -135 101 0 4 27 22 61 40 64 34 109
79 109 108 0 28 -33 51 -74 51 -30 0 -45 -7 -71 -33 -34 -34 -57 -93 -48 -126
2 -10 1 -21 -4 -24 -22 -14 -152 -28 -200 -22 l-53 6 30 26 c32 27 41 72 17
91 -14 12 -115 10 -135 -2 -19 -11 -14 -71 6 -89 28 -26 38 -20 13 7 -31 33
-25 70 12 74 16 2 27 -1 27 -9 0 -7 8 -5 21 7 15 14 24 16 37 8 44 -28 14 -84
-55 -103 -47 -14 -163 -14 -183 -1 -13 8 -12 10 3 10 26 0 57 37 57 69 0 38
-23 57 -53 44 -13 -6 -36 -9 -51 -6 -18 4 -31 1 -37 -8 -14 -22 -10 -65 7 -80
14 -12 14 -14 -4 -20 -11 -4 -83 -9 -161 -10 -136 -3 -142 -2 -166 21 -28 26
-34 17 -8 -12 25 -28 -1 -21 -31 8 -27 28 -37 23 -11 -6 13 -15 11 -16 -20
-17 -24 -1 -42 6 -60 24 -14 14 -25 21 -25 16 0 -5 9 -18 20 -28 17 -16 18
-21 7 -34 -22 -25 -29 -41 -19 -41 5 0 15 11 22 25 7 14 22 25 33 25 19 0 20
-1 2 -20 -10 -11 -16 -23 -12 -26 3 -3 13 6 22 20 10 14 24 26 32 26 13 0 13
-3 -1 -25 -9 -14 -13 -25 -8 -25 5 0 15 11 22 25 7 14 19 25 27 25 15 0 17
-16 3 -25 -5 -3 -10 -12 -10 -18 0 -7 10 0 21 16 19 25 26 27 97 28 43 0 120
4 172 8 54 4 106 3 120 -2 43 -16 380 -18 438 -3 48 12 52 12 57 -5 9 -27 53
-61 143 -107 44 -23 92 -56 106 -72 29 -35 36 -37 36 -10 0 25 51 83 98 111
20 12 53 34 72 48 33 24 43 26 160 28 69 2 143 2 165 2 89 -4 151 -3 175 0 14
2 121 3 239 3 l214 -2 -27 -21 c-15 -12 -25 -24 -22 -27 3 -3 15 3 25 12 11
10 37 24 58 31 32 11 35 14 18 20 -11 3 -38 15 -59 25 -50 25 -59 18 -15 -10
l34 -22 -79 6 c-43 3 -137 6 -208 6 l-129 0 22 29 c21 28 21 31 5 55 -13 21
-22 25 -54 21 -51 -5 -70 -14 -75 -33 -5 -22 20 -72 36 -73 6 -1 -4 -5 -23 -9
-19 -5 -54 -6 -77 -3 l-42 6 29 27 c33 30 38 61 16 79 -16 14 -102 5 -123 -11
-19 -15 -16 -45 7 -68 15 -15 17 -22 8 -24 -31 -10 -120 -14 -171 -9 l-56 6
14 28 c53 101 -64 223 -171 179z m113 -26 c50 -31 70 -103 43 -154 -14 -26
-37 -23 -118 17 -38 18 -58 35 -70 59 -15 32 -15 36 5 61 31 43 88 50 140 17z
m-319 -10 c12 -8 22 -19 22 -24 0 -21 -54 -69 -109 -99 l-61 -32 0 39 c0 62
58 131 110 132 9 0 26 -7 38 -16z m-651 -70 c5 -15 7 -15 15 0 10 18 43 21 53
5 25 -39 -46 -101 -91 -80 -25 11 -40 50 -30 76 7 20 45 19 53 -1z m1338 -29
c0 -22 -7 -33 -31 -47 -27 -16 -32 -16 -52 -2 -25 17 -30 62 -7 70 8 4 21 1
29 -5 10 -9 15 -8 20 4 10 28 41 13 41 -20z m191 13 c11 -17 -6 -54 -29 -67
-19 -10 -30 -10 -46 -2 -21 12 -37 53 -27 70 8 12 95 11 102 -1z"/>
</g>
</svg>
